<?xml version="1.0" encoding="utf-8"?>
<!-- Generator: Adobe Illustrator 26.1.0, SVG Export Plug-In . SVG Version: 6.00 Build 0)  -->
<svg version="1.1" id="Calque_1" xmlns="http://www.w3.org/2000/svg" xmlns:xlink="http://www.w3.org/1999/xlink" x="0px" y="0px"
	 viewBox="0 0 1000 1000" style="enable-background:new 0 0 1000 1000;" xml:space="preserve">
<style type="text/css">
	.st0{fill:#29235C;stroke:#1D1D1B;stroke-width:16;stroke-miterlimit:10;}
	.st1{fill:#F6F6F6;stroke:#1D1D1B;stroke-width:19;stroke-miterlimit:10;}
	.st2{fill:#FCEA10;stroke:#1D1D1B;stroke-width:14;stroke-miterlimit:10;}
	.st3{fill:#FFFFFF;stroke:#1D1D1B;stroke-width:19;stroke-miterlimit:10;}
</style>
<path class="st0" d="M366.57,342.43c0,4.4-60.44,334.07-60.44,334.07l20.88,35.16l39.56-24.18l68.13-329.67l-24.18-43.96
	L366.57,342.43z"/>
<path class="st1" d="M494.04,535.84c16.56,21.13,13.65,52.44,0,73.63c-10.9,16.9-32.82,33.86-58.24,30.77
	c-32.27-3.92-50.51-37.77-52.75-63.74c-0.54-6.29-2.05-23.8,8.79-38.46C412.5,510.1,469.28,504.24,494.04,535.84z"/>
<path class="st2" d="M488.55,460.01c-14.17-44.28-32.83-57.1-27.47-85.71c0.6-3.21,5.44-27.48,20.88-31.87
	c15.91-4.52,36.35,14,42.86,32.97c3.95,11.51,1.61,19.8,0,32.97c-4.92,40.21,1.27,90.74,17.58,95.6
	c9.3,2.77,13.71-11.73,28.57-12.09c22.54-0.54,43.3,32.06,50.55,57.14c11.18,38.64-6.28,71.3-8.79,75.82
	c-20.61,37.14-68.04,65.3-92.31,51.65c-14.49-8.15-17.18-29.22-20.88-58.24c-4.4-34.49,2.49-44.38,1.1-82.42
	C500.06,520.08,498.86,492.24,488.55,460.01z"/>
<polygon class="st3" points="494.04,529.24 298.44,535.84 269.87,500 306.13,462.21 487.45,485.29 "/>
</svg>
